<svg width="466" height="387" viewBox="0 0 466 387" fill="none" xmlns="http://www.w3.org/2000/svg">
<g clip-path="url(#clip0_1_291)">
<path d="M227.292 0.00147134C227.063 0.0107758 226.837 0.0652224 226.628 0.16175C226.42 0.258277 226.232 0.394987 226.076 0.564032C225.921 0.733077 225.799 0.931169 225.72 1.14698C225.641 1.36279 225.605 1.59209 225.615 1.82178L226.615 26.5933C226.624 26.823 226.678 27.0486 226.775 27.2572C226.871 27.4659 227.008 27.6535 227.177 27.8093C227.346 27.9651 227.544 28.0861 227.76 28.1653C227.976 28.2445 228.205 28.2804 228.435 28.271C228.665 28.2617 228.89 28.2073 229.099 28.1107C229.307 28.0142 229.495 27.8775 229.651 27.7084C229.807 27.5394 229.928 27.3413 230.007 27.1255C230.086 26.9097 230.122 26.6804 230.113 26.4507L229.113 1.67921C229.103 1.4495 229.049 1.22385 228.952 1.0152C228.856 0.806557 228.719 0.619007 228.55 0.463202C228.381 0.307398 228.183 0.18641 227.967 0.107184C227.751 0.0279589 227.522 -0.00795194 227.292 0.00147134Z" fill="black"/>
<path d="M207.818 22.9253C207.611 23.0258 207.426 23.166 207.273 23.338C207.121 23.51 207.004 23.7104 206.929 23.9277C206.853 24.145 206.822 24.3749 206.836 24.6044C206.849 24.8339 206.908 25.0584 207.009 25.2651L211.21 33.9057C211.413 34.3229 211.773 34.6423 212.212 34.7939C212.65 34.9456 213.131 34.9169 213.548 34.7143C213.755 34.6138 213.94 34.4736 214.092 34.3016C214.245 34.1296 214.362 33.9293 214.437 33.712C214.512 33.4947 214.544 33.2647 214.53 33.0352C214.516 32.8057 214.457 32.5812 214.357 32.3745L210.157 23.7339C210.057 23.5271 209.917 23.3422 209.745 23.1896C209.573 23.0371 209.372 22.9199 209.155 22.8448C208.938 22.7697 208.708 22.7381 208.478 22.7519C208.249 22.7657 208.024 22.8247 207.818 22.9253Z" fill="black"/>
<path d="M174.87 46.1343C174.491 45.8676 174.021 45.7626 173.563 45.8425C173.106 45.9223 172.7 46.1804 172.433 46.56C172.166 46.9395 172.061 47.4094 172.14 47.8665C172.22 48.3236 172.477 48.7304 172.857 48.9975L196.878 65.8823C197.258 66.149 197.728 66.254 198.185 66.1741C198.642 66.0943 199.049 65.8362 199.316 65.4565C199.448 65.2684 199.542 65.0561 199.592 64.8317C199.642 64.6073 199.648 64.3751 199.608 64.1485C199.569 63.922 199.485 63.7055 199.362 63.5113C199.239 63.3172 199.078 63.1492 198.89 63.0171L174.87 46.1343Z" fill="black"/>
<path d="M190.115 80.3765C189.885 80.367 189.656 80.403 189.44 80.4822C189.224 80.5614 189.026 80.6823 188.857 80.8381C188.688 80.994 188.551 81.1816 188.454 81.3902C188.358 81.5989 188.303 81.8245 188.294 82.0542C188.285 82.2839 188.321 82.5132 188.4 82.729C188.479 82.9448 188.6 83.143 188.756 83.312C188.912 83.4811 189.099 83.6177 189.308 83.7142C189.517 83.8108 189.742 83.8652 189.972 83.8745L193.853 84.0327C194.316 84.0518 194.769 83.886 195.11 83.5717C195.451 83.2575 195.654 82.8205 195.673 82.3569C195.683 82.1272 195.647 81.898 195.567 81.6821C195.488 81.4663 195.367 81.2682 195.211 81.0991C195.056 80.9301 194.868 80.7934 194.659 80.6969C194.451 80.6004 194.225 80.5459 193.995 80.5366L190.115 80.3765Z" fill="black"/>
<path d="M193.062 107.554L185.773 111.675C185.573 111.788 185.397 111.94 185.255 112.121C185.114 112.302 185.009 112.509 184.948 112.731C184.886 112.952 184.869 113.183 184.897 113.411C184.925 113.64 184.998 113.86 185.111 114.06C185.224 114.26 185.375 114.436 185.556 114.578C185.737 114.719 185.945 114.824 186.166 114.885C186.387 114.946 186.619 114.964 186.847 114.936C187.075 114.908 187.295 114.835 187.495 114.722L194.784 110.601C194.985 110.488 195.16 110.337 195.302 110.156C195.443 109.974 195.548 109.767 195.609 109.546C195.671 109.324 195.688 109.093 195.66 108.865C195.632 108.637 195.56 108.416 195.447 108.216C195.333 108.016 195.182 107.84 195.001 107.699C194.82 107.557 194.613 107.453 194.391 107.391C194.17 107.33 193.939 107.313 193.71 107.341C193.482 107.368 193.262 107.441 193.062 107.554Z" fill="black"/>
<path d="M264.702 92.2417L261.411 93.2046C261.191 93.2692 260.985 93.3766 260.806 93.5207C260.627 93.6649 260.478 93.8429 260.368 94.0445C260.257 94.2462 260.188 94.4676 260.163 94.6962C260.138 94.9247 260.159 95.1559 260.224 95.3765C260.288 95.5971 260.396 95.8028 260.54 95.9819C260.684 96.1609 260.862 96.3099 261.064 96.4202C261.266 96.5304 261.487 96.5999 261.715 96.6246C261.944 96.6492 262.175 96.6286 262.396 96.564L265.685 95.6011C265.905 95.5365 266.111 95.429 266.29 95.2849C266.469 95.1408 266.618 94.9628 266.728 94.7611C266.839 94.5594 266.908 94.338 266.933 94.1095C266.958 93.881 266.937 93.6498 266.872 93.4292C266.742 92.9841 266.44 92.609 266.033 92.3863C265.626 92.1637 265.148 92.1117 264.702 92.2417Z" fill="black"/>
<path d="M265.23 109.486C264.791 109.333 264.31 109.361 263.893 109.562C263.475 109.764 263.154 110.124 263.001 110.562C262.848 111 262.876 111.481 263.078 111.899C263.28 112.317 263.639 112.638 264.077 112.791L267.519 113.988C267.957 114.14 268.437 114.112 268.855 113.91C269.272 113.709 269.593 113.349 269.745 112.912C269.898 112.473 269.871 111.992 269.669 111.574C269.467 111.157 269.107 110.836 268.669 110.683L265.23 109.486Z" fill="black"/>
<path d="M285.142 43.0034C284.781 42.7118 284.319 42.5755 283.857 42.6246C283.396 42.6737 282.972 42.9041 282.681 43.2651L259.091 72.4995C258.947 72.6784 258.839 72.884 258.774 73.1045C258.709 73.325 258.689 73.5561 258.713 73.7846C258.738 74.0131 258.807 74.2346 258.917 74.4363C259.027 74.6381 259.176 74.8162 259.355 74.9604C259.534 75.1047 259.739 75.2124 259.96 75.2772C260.18 75.342 260.411 75.3628 260.64 75.3383C260.868 75.3138 261.09 75.2446 261.291 75.1345C261.493 75.0244 261.671 74.8757 261.816 74.6968L285.405 45.4643C285.55 45.2855 285.657 45.0799 285.722 44.8594C285.787 44.6389 285.808 44.4078 285.783 44.1793C285.759 43.9507 285.69 43.7293 285.58 43.5275C285.469 43.3258 285.321 43.1477 285.142 43.0034Z" fill="black"/>
<path d="M255.314 28.3159C255.096 28.3906 254.896 28.5073 254.724 28.6594C254.551 28.8116 254.411 28.9962 254.31 29.2027L249.241 39.603C249.038 40.0201 249.008 40.5008 249.159 40.9396C249.31 41.3784 249.629 41.7392 250.046 41.9429C250.253 42.0436 250.477 42.1026 250.707 42.1165C250.936 42.1305 251.166 42.0991 251.383 42.0242C251.6 41.9493 251.801 41.8323 251.973 41.6799C252.145 41.5276 252.285 41.3429 252.386 41.1362L257.456 30.7359C257.557 30.5293 257.616 30.3049 257.63 30.0755C257.644 29.8461 257.613 29.6161 257.538 29.3988C257.463 29.1815 257.346 28.9812 257.193 28.8091C257.041 28.637 256.856 28.4967 256.65 28.396C256.233 28.1934 255.752 28.1646 255.314 28.3159Z" fill="black"/>
<path d="M103.933 118.062C103.47 118.094 103.039 118.309 102.734 118.658C102.43 119.008 102.276 119.464 102.308 119.927C103.252 133.664 110.087 142.001 120.413 145.847C120.848 146.009 121.33 145.991 121.752 145.798C122.173 145.605 122.501 145.253 122.663 144.818C122.744 144.602 122.781 144.373 122.773 144.143C122.765 143.914 122.711 143.688 122.615 143.479C122.52 143.269 122.384 143.081 122.216 142.925C122.047 142.768 121.85 142.646 121.634 142.566C112.321 139.098 106.676 132.422 105.8 119.687C105.784 119.458 105.723 119.234 105.621 119.028C105.518 118.822 105.377 118.639 105.203 118.488C105.03 118.337 104.828 118.222 104.61 118.149C104.392 118.075 104.162 118.046 103.933 118.062Z" fill="black"/>
<path d="M96.0871 125.07C95.8696 125.144 95.6688 125.261 95.4963 125.413C95.3238 125.565 95.1829 125.749 95.0817 125.955C94.9805 126.162 94.9209 126.386 94.9064 126.616C94.892 126.845 94.9228 127.075 94.9973 127.292C95.5987 129.053 95.7112 130.585 95.5402 131.638C95.3693 132.691 94.9627 133.153 94.6965 133.292C94.4303 133.432 94.0087 133.527 93.007 132.9C92.0054 132.272 90.625 130.882 89.1652 128.501C88.9228 128.106 88.5331 127.823 88.0819 127.714C87.6306 127.606 87.1547 127.681 86.759 127.923C86.5628 128.043 86.3922 128.201 86.2569 128.387C86.1216 128.573 86.0243 128.784 85.9707 129.008C85.917 129.231 85.908 129.463 85.944 129.69C85.9801 129.918 86.0605 130.136 86.1809 130.332C87.8261 133.014 89.4619 134.809 91.1496 135.867C92.8373 136.924 94.7782 137.201 96.3195 136.394C97.8608 135.587 98.7069 133.976 98.9953 132.199C99.2838 130.422 99.0633 128.368 98.3098 126.162C98.2356 125.944 98.1193 125.743 97.9675 125.57C97.8156 125.397 97.6312 125.256 97.4248 125.155C97.2183 125.054 96.9939 124.994 96.7644 124.979C96.5348 124.965 96.3047 124.995 96.0871 125.07Z" fill="black"/>
<path d="M91.3919 111.494C87.5533 112.376 84.5573 114.462 82.3782 117.287C82.2378 117.469 82.1345 117.676 82.0744 117.898C82.0143 118.12 81.9984 118.352 82.0278 118.58C82.0571 118.808 82.1311 119.028 82.2455 119.227C82.36 119.426 82.5126 119.601 82.6946 119.742C82.8766 119.882 83.0845 119.985 83.3063 120.046C83.5282 120.106 83.7597 120.121 83.9877 120.092C84.2157 120.063 84.4357 119.989 84.6351 119.874C84.8344 119.76 85.0093 119.607 85.1497 119.425C86.9106 117.142 89.0937 115.612 92.1751 114.904C92.3992 114.852 92.6109 114.757 92.7983 114.624C92.9856 114.491 93.1448 114.322 93.2669 114.127C93.389 113.933 93.4715 113.716 93.5097 113.489C93.5479 113.262 93.541 113.03 93.4896 112.806C93.3854 112.354 93.1058 111.962 92.7125 111.716C92.3191 111.469 91.8441 111.39 91.3919 111.494Z" fill="black"/>
<path d="M91.9719 157.689C91.5105 157.639 91.0483 157.775 90.6868 158.066C90.3254 158.357 90.0943 158.779 90.0441 159.24C89.9939 159.701 90.1289 160.163 90.4192 160.525C92.2573 162.81 94.4177 164.573 96.9778 165.468C99.538 166.363 102.439 166.334 105.513 165.298C105.953 165.15 106.316 164.833 106.522 164.418C106.728 164.002 106.761 163.521 106.613 163.082C106.464 162.642 106.148 162.279 105.732 162.073C105.316 161.866 104.836 161.834 104.396 161.982C101.91 162.819 99.9195 162.79 98.1321 162.166C96.3448 161.541 94.6996 160.261 93.1477 158.332C93.0036 158.152 92.8255 158.004 92.6238 157.893C92.4221 157.783 92.2005 157.714 91.9719 157.689Z" fill="black"/>
<path d="M112.404 146.746C111.941 146.783 111.512 147.002 111.212 147.356C110.911 147.709 110.763 148.168 110.8 148.63C111.926 162.686 109.075 172.405 103.743 177.339C98.4117 182.274 90.309 183.023 79.4426 178.294C79.0171 178.109 78.5355 178.101 78.1036 178.271C77.6718 178.441 77.3251 178.775 77.1399 179.201C76.9548 179.626 76.9463 180.108 77.1162 180.54C77.2862 180.972 77.6206 181.318 78.0462 181.503C89.6497 186.552 99.5946 185.947 106.12 179.908C112.646 173.868 115.462 162.994 114.288 148.349C114.251 147.887 114.031 147.458 113.678 147.157C113.325 146.856 112.866 146.708 112.404 146.746Z" fill="black"/>
<path d="M100.343 55.3999C89.1548 55.2217 77.4487 60.5135 66.2591 76.1284C56.2334 72.3113 44.3312 72.3952 34.7395 77.3355C25.1551 82.2719 18.1668 92.2136 18.2708 106.982C16.5069 106.888 13.9001 106.921 10.6224 108.113C5.69116 109.906 0.511856 114.642 0.0559557 124.361C-0.845444 143.351 9.25614 158.416 22.2356 167.283C36.2802 176.875 57.8598 177.263 74.3724 160.664C75.2727 159.759 75.8873 158.911 76.0931 157.847C76.2989 156.784 75.7801 155.568 75.056 154.97C73.6079 153.775 71.9728 153.807 70.4798 153.955C65.6927 154.43 61.7132 153.506 59.1185 151.164C56.5237 148.821 55.0114 144.905 55.6556 138.498C56.0853 134.224 57.8574 132.367 59.4505 131.814C61.0436 131.261 62.7587 131.823 63.8938 133.662V133.664C64.9906 135.435 67.2115 138.919 69.8002 142.064C71.0945 143.637 72.4768 145.128 73.9192 146.298C75.3616 147.469 76.8662 148.396 78.636 148.503C81.8861 148.701 84.4883 146.726 85.5149 144.041C86.5414 141.356 86.4146 138.056 85.445 134.652V134.65C84.3484 130.785 82.2588 125.868 81.0973 121.041C79.9357 116.213 79.7752 111.708 81.9274 108.554V108.552C83.3807 106.418 85.5483 105.718 88.7789 105.556C92.0095 105.394 96.0564 105.918 100.324 106.081C105.641 106.285 111.425 104.956 116.125 101.431C120.824 97.9062 124.324 92.145 124.994 84.0053C126.221 69.0157 117.77 57.6837 105.209 55.808C103.599 55.5677 101.975 55.4259 100.34 55.3998L100.343 55.3999ZM100.261 58.8745C101.743 58.9116 103.22 59.0489 104.695 59.269C115.493 60.8814 122.622 70.1259 121.509 83.7202C120.909 91.0226 117.955 95.6875 114.029 98.6323C110.103 101.577 105.093 102.761 100.46 102.583C96.4078 102.429 92.3336 101.875 88.6067 102.062C84.8799 102.249 81.2532 103.326 79.0365 106.582C76.0005 111.032 76.4411 116.641 77.6967 121.859C78.9525 127.078 81.0959 132.139 82.0795 135.607V135.609C82.899 138.485 82.8713 141.155 82.2455 142.793C81.6196 144.43 80.8169 145.129 78.847 145.009C78.3219 144.978 77.2798 144.519 76.1244 143.582C74.9689 142.644 73.7033 141.302 72.5013 139.841C70.0979 136.921 67.9339 133.539 66.8705 131.822V131.82C64.9953 128.783 61.4516 127.413 58.3002 128.507C55.1482 129.602 52.6916 132.971 52.1713 138.146C51.4555 145.265 53.2081 150.545 56.7709 153.761C60.3332 156.978 65.4013 157.978 70.8235 157.439C71.5128 157.371 71.9902 157.532 72.3313 157.613C72.2274 157.788 72.2544 157.831 71.892 158.195C56.4646 173.703 36.9238 173.076 24.2084 164.392C12.0479 156.085 2.71152 142.197 3.55022 124.527V124.525C3.95422 115.914 7.86887 112.838 11.8177 111.402C15.7666 109.965 19.722 110.548 19.722 110.548C19.9787 110.588 20.2411 110.571 20.4902 110.497C20.7392 110.423 20.9686 110.294 21.1618 110.12C21.355 109.947 21.507 109.732 21.607 109.492C21.7069 109.252 21.7522 108.993 21.7395 108.734C21.0168 93.9766 27.4124 85.0455 36.3412 80.4467C45.27 75.8479 56.907 75.8159 66.2298 79.7553C66.6 79.9116 67.0127 79.9358 67.3986 79.8238C67.7845 79.7118 68.1201 79.4703 68.349 79.1401C79.3422 63.2862 89.889 58.6145 100.259 58.8745L100.261 58.8745Z" fill="black"/>
<path fill-rule="evenodd" clip-rule="evenodd" d="M66.9137 78.1428C47.3137 69.8608 18.4936 78.1948 19.9936 108.819C19.9936 108.819 2.66354 106.114 1.80354 124.444C0.933543 142.774 10.6536 157.251 23.2236 165.838C36.6036 174.976 57.1636 175.483 73.1336 159.429C76.1936 156.355 73.0636 155.458 70.6536 155.697C60.4436 156.712 52.5536 151.849 53.9137 138.322C54.8637 128.874 62.3736 127.865 65.3836 132.742C67.5436 136.23 74.1536 146.478 78.7436 146.756C83.9636 147.073 85.5536 141.41 83.7636 135.129C81.6836 127.796 75.2936 115.171 80.4836 107.567C84.1536 102.177 92.0736 104.015 100.394 104.333C110.344 104.714 121.984 99.3047 123.254 83.8627C124.424 69.5707 116.634 59.2828 104.954 57.5388C92.6136 55.6968 79.7236 59.6688 66.9137 78.1428Z" fill="black"/>
<path d="M61.009 208.591C54.6058 207.983 49.5633 210.373 46.1184 213.318C41.5252 217.244 39.4465 222.123 39.4465 222.123C39.3553 222.334 39.3067 222.561 39.3033 222.791C39.2999 223.02 39.3419 223.249 39.4268 223.462C39.5117 223.676 39.6378 223.871 39.798 224.036C39.9583 224.201 40.1494 224.332 40.3605 224.423C40.5717 224.514 40.7989 224.563 41.0289 224.566C41.2588 224.569 41.4872 224.527 41.7009 224.442C41.9145 224.357 42.1093 224.231 42.2741 224.07C42.4389 223.91 42.5705 223.719 42.6613 223.507C42.6613 223.507 44.4919 219.313 48.3937 215.978C52.2954 212.643 57.9429 210.135 66.5695 213.544C85.5786 221.058 96.5326 227.22 101.698 229.771C103.939 230.877 106.585 231.714 109.118 230.791C110.385 230.329 111.53 229.328 112.21 227.941C112.89 226.554 113.171 224.833 113.103 222.693C113.088 222.229 112.89 221.79 112.551 221.472C112.213 221.155 111.762 220.985 111.298 220.999C110.834 221.014 110.395 221.213 110.078 221.551C109.76 221.89 109.59 222.34 109.605 222.804C109.661 224.564 109.399 225.725 109.068 226.402C108.736 227.079 108.4 227.326 107.919 227.501C106.958 227.852 105.038 227.515 103.249 226.632C98.3346 224.205 87.0482 217.874 67.8585 210.289C65.4302 209.329 63.1453 208.794 61.0109 208.591H61.009Z" fill="black"/>
<path d="M124.929 352.949C123.729 352.757 122.771 353.462 122.187 354.146C121.603 354.83 121.167 355.657 120.747 356.671C120.747 356.672 120.747 356.673 120.747 356.673C118.693 361.651 113.471 368.029 108.325 369.019C105.692 369.526 102.011 369.059 99.0735 368.396C96.1355 367.733 93.9584 366.933 93.9584 366.933C93.7426 366.854 93.5132 366.818 93.2835 366.828C93.0538 366.837 92.8282 366.892 92.6196 366.988C92.4111 367.085 92.2236 367.222 92.0679 367.391C91.9122 367.56 91.7914 367.758 91.7123 367.974C91.6331 368.19 91.5971 368.419 91.6066 368.649C91.616 368.879 91.6707 369.104 91.7673 369.313C91.864 369.521 92.0009 369.709 92.1701 369.865C92.3392 370.02 92.5374 370.141 92.7533 370.22C92.7533 370.22 95.137 371.096 98.3041 371.81C101.471 372.525 105.439 373.137 108.986 372.455C116.199 371.067 121.576 363.838 123.982 358.011V358.009C124.129 357.654 124.226 357.56 124.363 357.308C124.509 357.736 124.656 358.057 124.794 358.787C125.192 360.907 125.016 364.287 125.679 367.164C126.011 368.602 126.599 370.081 127.974 371.015C129.35 371.949 131.212 371.988 133.201 371.322C140.134 368.994 144.495 366.373 144.495 366.373C144.893 366.133 145.179 365.746 145.291 365.296C145.403 364.846 145.332 364.37 145.093 363.972C144.975 363.775 144.819 363.603 144.634 363.467C144.449 363.33 144.239 363.231 144.016 363.176C143.793 363.12 143.561 363.109 143.334 363.143C143.106 363.177 142.888 363.256 142.691 363.375C142.691 363.375 138.694 365.785 132.087 368.003C130.685 368.473 130.203 368.3 129.939 368.121C129.675 367.941 129.328 367.404 129.091 366.376C128.617 364.322 128.766 360.97 128.234 358.138C128.234 358.137 128.234 358.135 128.234 358.134C127.98 356.799 127.68 355.758 127.242 354.894C126.804 354.03 126.129 353.14 124.929 352.949Z" fill="black"/>
<path fill-rule="evenodd" clip-rule="evenodd" d="M117.96 242.59C117.96 242.872 117.904 243.15 117.797 243.41C117.689 243.67 117.531 243.906 117.333 244.105C117.134 244.303 116.898 244.461 116.638 244.569C116.378 244.676 116.1 244.732 115.818 244.732C115.537 244.732 115.259 244.676 114.999 244.569C114.739 244.461 114.503 244.303 114.304 244.105C114.105 243.906 113.948 243.67 113.84 243.41C113.732 243.15 113.677 242.872 113.677 242.59C113.677 242.309 113.732 242.031 113.84 241.771C113.948 241.511 114.105 241.275 114.304 241.076C114.503 240.877 114.739 240.72 114.999 240.612C115.259 240.504 115.537 240.449 115.818 240.449C116.1 240.449 116.378 240.504 116.638 240.612C116.898 240.72 117.134 240.877 117.333 241.076C117.531 241.275 117.689 241.511 117.797 241.771C117.904 242.031 117.96 242.309 117.96 242.59Z" fill="black"/>
<path fill-rule="evenodd" clip-rule="evenodd" d="M122.244 259.434C122.244 260.002 122.018 260.547 121.616 260.949C121.215 261.35 120.67 261.576 120.102 261.576C119.821 261.576 119.543 261.52 119.283 261.413C119.023 261.305 118.787 261.147 118.588 260.949C118.389 260.75 118.232 260.514 118.124 260.254C118.016 259.994 117.961 259.716 117.961 259.434C117.961 259.153 118.016 258.875 118.124 258.615C118.232 258.355 118.389 258.119 118.588 257.92C118.787 257.721 119.023 257.564 119.283 257.456C119.543 257.348 119.821 257.293 120.102 257.293C120.67 257.293 121.215 257.519 121.616 257.92C122.018 258.322 122.244 258.866 122.244 259.434Z" fill="black"/>
<path fill-rule="evenodd" clip-rule="evenodd" d="M124.622 277.268C124.622 277.55 124.566 277.828 124.459 278.088C124.351 278.348 124.193 278.584 123.995 278.783C123.796 278.981 123.56 279.139 123.3 279.247C123.04 279.354 122.762 279.41 122.48 279.41C122.199 279.41 121.921 279.354 121.661 279.247C121.401 279.139 121.165 278.981 120.966 278.783C120.767 278.584 120.61 278.348 120.502 278.088C120.394 277.828 120.339 277.55 120.339 277.268C120.339 276.987 120.394 276.709 120.502 276.449C120.61 276.189 120.767 275.953 120.966 275.754C121.165 275.555 121.401 275.398 121.661 275.29C121.921 275.182 122.199 275.127 122.48 275.127C122.762 275.127 123.04 275.182 123.3 275.29C123.56 275.398 123.796 275.555 123.995 275.754C124.193 275.953 124.351 276.189 124.459 276.449C124.566 276.709 124.622 276.987 124.622 277.268Z" fill="black"/>
<path fill-rule="evenodd" clip-rule="evenodd" d="M126.108 294.211C126.108 294.493 126.052 294.771 125.945 295.031C125.837 295.291 125.679 295.527 125.481 295.726C125.282 295.924 125.046 296.082 124.786 296.19C124.526 296.297 124.248 296.353 123.966 296.353C123.685 296.353 123.407 296.297 123.147 296.19C122.887 296.082 122.651 295.924 122.452 295.726C122.253 295.527 122.096 295.291 121.988 295.031C121.88 294.771 121.825 294.493 121.825 294.211C121.825 293.93 121.88 293.652 121.988 293.392C122.096 293.132 122.253 292.896 122.452 292.697C122.651 292.498 122.887 292.341 123.147 292.233C123.407 292.125 123.685 292.07 123.966 292.07C124.248 292.07 124.526 292.125 124.786 292.233C125.046 292.341 125.282 292.498 125.481 292.697C125.679 292.896 125.837 293.132 125.945 293.392C126.052 293.652 126.108 293.93 126.108 294.211Z" fill="black"/>
<path fill-rule="evenodd" clip-rule="evenodd" d="M126.405 309.965C126.405 310.247 126.349 310.525 126.242 310.785C126.134 311.045 125.976 311.281 125.778 311.48C125.579 311.678 125.343 311.836 125.083 311.944C124.823 312.051 124.545 312.107 124.263 312.107C123.982 312.107 123.704 312.051 123.444 311.944C123.184 311.836 122.948 311.678 122.749 311.48C122.55 311.281 122.393 311.045 122.285 310.785C122.177 310.525 122.122 310.247 122.122 309.965C122.122 309.684 122.177 309.406 122.285 309.146C122.393 308.886 122.55 308.65 122.749 308.451C122.948 308.252 123.184 308.095 123.444 307.987C123.704 307.879 123.982 307.824 124.263 307.824C124.545 307.824 124.823 307.879 125.083 307.987C125.343 308.095 125.579 308.252 125.778 308.451C125.976 308.65 126.134 308.886 126.242 309.146C126.349 309.406 126.405 309.684 126.405 309.965Z" fill="black"/>
<path fill-rule="evenodd" clip-rule="evenodd" d="M127.594 327.206C127.594 327.487 127.538 327.766 127.431 328.025C127.323 328.285 127.165 328.521 126.966 328.72C126.768 328.919 126.532 329.077 126.272 329.184C126.012 329.292 125.733 329.347 125.452 329.347C125.171 329.347 124.893 329.292 124.633 329.184C124.373 329.077 124.137 328.919 123.938 328.72C123.739 328.521 123.581 328.285 123.474 328.025C123.366 327.766 123.311 327.487 123.311 327.206C123.311 326.925 123.366 326.646 123.474 326.387C123.581 326.127 123.739 325.891 123.938 325.692C124.137 325.493 124.373 325.335 124.633 325.228C124.893 325.12 125.171 325.065 125.452 325.065C125.733 325.065 126.012 325.12 126.272 325.228C126.532 325.335 126.768 325.493 126.966 325.692C127.165 325.891 127.323 326.127 127.431 326.387C127.538 326.646 127.594 326.925 127.594 327.206Z" fill="black"/>
<path fill-rule="evenodd" clip-rule="evenodd" d="M127.198 343.852C127.198 344.133 127.142 344.411 127.035 344.671C126.927 344.931 126.769 345.167 126.57 345.366C126.372 345.565 126.136 345.722 125.876 345.83C125.616 345.938 125.337 345.993 125.056 345.993C124.775 345.993 124.497 345.938 124.237 345.83C123.977 345.722 123.741 345.565 123.542 345.366C123.343 345.167 123.185 344.931 123.078 344.671C122.97 344.411 122.915 344.133 122.915 343.852C122.915 343.57 122.97 343.292 123.078 343.032C123.185 342.772 123.343 342.536 123.542 342.337C123.741 342.139 123.977 341.981 124.237 341.873C124.497 341.766 124.775 341.71 125.056 341.71C125.337 341.71 125.616 341.766 125.876 341.873C126.136 341.981 126.372 342.139 126.57 342.337C126.769 342.536 126.927 342.772 127.035 343.032C127.142 343.292 127.198 343.57 127.198 343.852Z" fill="black"/>
<path fill-rule="evenodd" clip-rule="evenodd" d="M87.2737 382.749C82.6937 382.514 43.3036 385.597 26.3336 363.428C9.36362 341.258 0.663678 316.052 16.7637 275.532C25.8337 252.699 38.1436 233.276 48.1036 220.48C51.9836 215.486 56.5537 215.694 66.4937 219.81C78.2037 224.654 101.584 236.226 111.364 264.763C116.514 279.786 118.834 308.6 110.254 341.713C105.924 358.44 98.0436 373.765 93.9736 380.178C92.8036 382.038 91.0237 382.942 87.2737 382.749ZM71.1137 265.32C78.2237 259.264 86.0737 255.304 95.1337 254.764C96.0937 254.707 96.8337 253.877 96.7737 252.913C96.7137 251.949 95.8836 251.213 94.9236 251.27C85.0936 251.856 76.5536 256.087 68.8436 262.655C68.1036 263.281 68.0237 264.387 68.6437 265.122C69.2737 265.858 70.3737 265.946 71.1137 265.32ZM57.2437 281.512C56.3037 277.253 47.8337 299.595 45.6137 306.697C43.3937 313.799 43.2737 320.711 47.0137 323.945C53.8537 329.855 63.2636 332.189 66.6736 332.635C69.4536 332.999 69.0237 330.484 67.5237 330.2C66.4837 330.003 62.9837 329.309 59.9037 328.31C56.7337 327.282 54.7636 325.964 55.4636 320.13C56.2236 313.814 57.2437 281.512 57.2437 281.512Z" fill="black"/>
<path d="M92.6047 181.443C92.1425 181.483 91.7149 181.704 91.416 182.059C91.1172 182.414 90.9715 182.873 91.011 183.335C91.7799 192.281 94.0475 198.984 97.7493 203.718C101.451 208.453 106.587 211.09 112.546 211.939C112.774 211.972 113.005 211.959 113.228 211.902C113.451 211.845 113.66 211.745 113.844 211.607C114.028 211.469 114.183 211.296 114.3 211.099C114.417 210.901 114.494 210.682 114.527 210.455C114.559 210.227 114.547 209.995 114.49 209.772C114.432 209.55 114.332 209.34 114.194 209.156C114.056 208.972 113.883 208.817 113.685 208.7C113.487 208.583 113.268 208.506 113.04 208.474C107.78 207.724 103.645 205.577 100.507 201.564C97.369 197.551 95.2284 191.543 94.4973 183.037C94.4576 182.574 94.2359 182.147 93.881 181.848C93.5261 181.549 93.067 181.403 92.6047 181.443Z" fill="black"/>
<path fill-rule="evenodd" clip-rule="evenodd" d="M99.3236 202.895C99.3236 202.895 123.634 206.047 141.234 195.21C156.364 185.887 188.694 172.768 204.044 128.846C206.444 122.005 209.694 124.249 213.834 126.237C217.124 127.821 235.394 137.743 238.384 140.042C240.854 141.944 240.414 145.172 239.344 148.49C238.264 151.808 232.764 174.792 209.344 206.723C195.494 225.611 176.864 239.271 154.664 248.783C152.544 249.693 151.144 248.761 150.064 246.586C147.174 240.759 137.024 223.709 131.444 217.721C130.434 216.634 127.914 217.633 129.484 219.84C133.704 225.738 172.424 270.194 183.524 374.699C184.154 380.647 180.834 382.541 175.064 383.492C169.294 384.444 149.704 385.014 146.274 383.746C142.854 382.478 141.264 379.307 141.144 373.727C141.014 368.147 135.144 303.774 131.464 277.069C127.794 250.363 128.104 230.63 104.264 207.261C102.424 206.129 100.774 204.683 99.3236 202.895Z" fill="black"/>
<path d="M227.64 92.232C226.984 92.372 226.348 92.6775 225.833 93.1128C224.803 93.9834 224.013 95.2533 223.255 97.0269C220.196 104.152 219.683 113.52 219.683 117.5C219.683 117.964 219.867 118.409 220.195 118.737C220.524 119.065 220.969 119.25 221.433 119.25C221.897 119.25 222.342 119.065 222.67 118.737C222.998 118.409 223.183 117.964 223.183 117.5C223.183 113.869 223.812 104.596 226.472 98.4038V98.4018C227.104 96.9214 227.736 96.0868 228.091 95.7866C228.446 95.4864 228.282 95.6016 228.322 95.6167C228.361 95.6317 228.724 95.8802 229.077 96.5073C229.43 97.1334 229.771 98.0668 229.997 99.146C230.941 103.707 231.923 115.351 231.982 123.408V123.412C232.006 126.122 230.424 129.12 228.712 131.39C227 133.661 225.298 135.134 225.298 135.134C225.124 135.285 224.982 135.468 224.878 135.673C224.775 135.879 224.714 136.102 224.697 136.332C224.68 136.561 224.709 136.791 224.781 137.009C224.853 137.227 224.968 137.429 225.118 137.603C225.422 137.954 225.852 138.17 226.315 138.203C226.777 138.237 227.234 138.086 227.585 137.783C227.585 137.783 229.559 136.081 231.507 133.498C233.455 130.914 235.517 127.38 235.482 123.382V123.38C235.421 115.077 234.502 103.642 233.425 98.437V98.433C233.141 97.0733 232.718 95.8381 232.126 94.7885C231.534 93.7389 230.77 92.8048 229.572 92.3471C228.973 92.1183 228.294 92.0918 227.638 92.2318L227.64 92.232Z" fill="black"/>
<path d="M224.456 48.3315C223.071 48.066 221.775 48.9561 221.081 49.9995C220.387 51.0429 219.965 52.3662 219.704 54.0366C219.704 54.0379 219.704 54.0393 219.704 54.0406C218.773 60.0731 216.104 77.6115 215.007 95.2535C213.945 112.346 206.353 128.398 206.353 128.398C206.254 128.606 206.197 128.831 206.186 129.06C206.174 129.29 206.208 129.519 206.285 129.736C206.362 129.953 206.481 130.152 206.635 130.322C206.789 130.493 206.975 130.631 207.183 130.73C207.602 130.929 208.083 130.954 208.52 130.799C208.958 130.644 209.315 130.321 209.515 129.902C209.515 129.902 217.384 113.454 218.501 95.4723C219.585 78.0394 222.234 60.5942 223.163 54.5757V54.5738C223.363 53.2941 223.705 52.469 223.958 52.0562C224.026 52.1246 223.968 52.0321 224.167 52.4293C224.522 53.1318 224.906 54.3605 225.14 56.066C226.144 63.3788 228.941 85.904 229.185 96.355C229.196 96.8188 229.39 97.2594 229.726 97.5798C230.061 97.9003 230.51 98.0745 230.974 98.064C231.204 98.0587 231.43 98.0081 231.641 97.9152C231.851 97.8223 232.041 97.6889 232.2 97.5226C232.358 97.3563 232.483 97.1603 232.565 96.9459C232.648 96.7314 232.688 96.5028 232.683 96.273C232.427 85.326 229.623 62.9905 228.607 55.5914C228.336 53.6188 227.905 52.0648 227.292 50.8511C226.679 49.6375 225.842 48.5971 224.456 48.3315Z" fill="black"/>
<path d="M234.14 90.1069C233.253 90.3581 232.429 90.8573 231.794 91.5562C230.524 92.954 229.825 94.9806 229.667 97.5034C229.638 97.9665 229.795 98.422 230.101 98.77C230.408 99.1179 230.841 99.3298 231.304 99.3589C231.767 99.3878 232.223 99.2316 232.571 98.9247C232.918 98.6178 233.13 98.1852 233.159 97.7222C233.282 95.7531 233.86 94.486 234.384 93.9097C234.908 93.3334 235.191 93.2812 235.757 93.4702C236.323 93.6593 237.254 94.3789 238.081 95.9976C238.908 97.6163 239.615 100.073 239.878 103.406C240.563 112.056 244.405 119.959 244.405 119.959C244.505 120.166 244.644 120.351 244.816 120.505C244.987 120.658 245.187 120.776 245.404 120.853C245.62 120.929 245.85 120.962 246.08 120.949C246.309 120.936 246.534 120.878 246.741 120.779C246.949 120.679 247.134 120.54 247.288 120.369C247.441 120.198 247.559 119.998 247.636 119.781C247.712 119.564 247.744 119.334 247.732 119.105C247.719 118.875 247.661 118.65 247.562 118.443C247.562 118.443 243.984 110.908 243.368 103.13C243.077 99.448 242.3 96.5665 241.197 94.4058C240.093 92.2451 238.644 90.7439 236.866 90.1499C235.978 89.8529 235.027 89.8559 234.14 90.1069Z" fill="black"/>
<path d="M325.9 228.209C325.452 228.088 324.974 228.15 324.572 228.382C324.17 228.613 323.876 228.995 323.755 229.443C310.414 278.783 303.377 331.197 297.823 384.296C297.799 384.525 297.821 384.756 297.886 384.977C297.951 385.197 298.059 385.403 298.204 385.581C298.349 385.76 298.527 385.908 298.729 386.018C298.932 386.128 299.153 386.196 299.382 386.22C299.844 386.268 300.305 386.131 300.666 385.839C301.026 385.547 301.256 385.123 301.304 384.662C306.85 331.629 313.873 279.391 327.132 230.355C327.192 230.133 327.208 229.902 327.178 229.674C327.149 229.446 327.075 229.226 326.96 229.027C326.846 228.827 326.693 228.652 326.511 228.512C326.329 228.372 326.122 228.269 325.9 228.209Z" fill="black"/>
<path d="M327.929 332.527C324.184 332.127 320.652 332.99 317.39 334.599C317.184 334.701 317 334.842 316.848 335.015C316.697 335.188 316.581 335.389 316.507 335.606C316.433 335.824 316.403 336.054 316.418 336.283C316.433 336.513 316.493 336.737 316.595 336.943C316.697 337.149 316.838 337.333 317.011 337.485C317.184 337.636 317.385 337.752 317.602 337.826C317.82 337.9 318.05 337.93 318.279 337.915C318.508 337.9 318.733 337.84 318.939 337.738C321.757 336.347 324.562 335.687 327.558 336.007C327.786 336.032 328.017 336.011 328.238 335.946C328.458 335.881 328.664 335.773 328.843 335.629C329.022 335.485 329.17 335.306 329.28 335.105C329.39 334.903 329.459 334.681 329.484 334.453C329.508 334.224 329.487 333.993 329.422 333.773C329.357 333.552 329.25 333.347 329.105 333.168C328.961 332.989 328.783 332.84 328.581 332.73C328.379 332.62 328.157 332.551 327.929 332.527Z" fill="black"/>
<path d="M396.673 331.839C392.858 331.66 389.008 331.853 385.128 332.449C384.901 332.484 384.683 332.563 384.486 332.682C384.289 332.801 384.118 332.958 383.982 333.143C383.846 333.329 383.748 333.539 383.693 333.762C383.639 333.986 383.628 334.218 383.663 334.445C383.734 334.904 383.984 335.315 384.358 335.59C384.733 335.864 385.201 335.978 385.659 335.908C392.96 334.787 400.119 335.173 407.185 336.875C407.636 336.983 408.111 336.907 408.507 336.665C408.902 336.423 409.185 336.034 409.294 335.584C409.403 335.132 409.328 334.656 409.086 334.261C408.844 333.865 408.454 333.581 408.003 333.472C404.266 332.572 400.488 332.019 396.673 331.839Z" fill="black"/>
<path d="M399.361 259.337C398.922 259.489 398.562 259.809 398.359 260.227C398.157 260.645 398.128 261.125 398.28 261.564C411.136 298.64 419.011 338.276 425.304 378.765C425.376 379.224 425.626 379.635 426.001 379.908C426.376 380.182 426.844 380.295 427.302 380.224C427.529 380.189 427.747 380.109 427.943 379.99C428.14 379.87 428.311 379.713 428.446 379.528C428.582 379.342 428.68 379.132 428.734 378.908C428.788 378.685 428.798 378.453 428.763 378.226C422.455 337.642 414.551 297.805 401.587 260.417C401.435 259.979 401.115 259.619 400.697 259.416C400.28 259.214 399.799 259.185 399.361 259.337Z" fill="black"/>
<path d="M351.124 200.003C350.907 200.078 350.706 200.195 350.534 200.347C350.362 200.499 350.221 200.684 350.12 200.89C350.12 200.89 346.205 208.843 347.417 218.552C348.042 223.558 350.437 227.504 353.878 229.269C357.319 231.034 361.735 230.155 364.995 226.392C371.085 219.376 374.823 209.743 388.099 203.894C388.309 203.801 388.5 203.668 388.659 203.502C388.818 203.336 388.942 203.14 389.026 202.926C389.109 202.711 389.149 202.482 389.144 202.253C389.139 202.023 389.088 201.796 388.995 201.585C388.808 201.161 388.46 200.828 388.027 200.661C387.595 200.493 387.113 200.504 386.689 200.691C372.326 207.018 367.822 217.799 362.353 224.099V224.101C359.843 226.997 357.569 227.229 355.478 226.156C353.386 225.083 351.407 222.244 350.892 218.119C349.824 209.564 353.269 202.425 353.269 202.425C353.369 202.219 353.428 201.994 353.442 201.765C353.456 201.536 353.425 201.306 353.35 201.088C353.275 200.871 353.158 200.671 353.006 200.499C352.854 200.327 352.669 200.186 352.462 200.086C352.045 199.882 351.565 199.853 351.126 200.004L351.124 200.003Z" fill="black"/>
<path d="M356.241 226.472C356.02 226.412 355.788 226.396 355.56 226.426C355.332 226.455 355.112 226.529 354.913 226.644C354.714 226.758 354.539 226.911 354.398 227.093C354.258 227.275 354.155 227.483 354.095 227.705C350.094 242.459 350.865 258.668 351.284 274.585C351.297 275.049 351.493 275.489 351.829 275.809C352.166 276.128 352.615 276.301 353.079 276.289C353.309 276.283 353.536 276.231 353.746 276.138C353.956 276.044 354.145 275.91 354.303 275.743C354.461 275.576 354.585 275.38 354.667 275.165C354.75 274.95 354.789 274.722 354.782 274.492C354.362 258.529 353.672 242.634 357.472 228.621C357.532 228.399 357.548 228.167 357.519 227.939C357.49 227.711 357.416 227.491 357.302 227.291C357.188 227.092 357.035 226.917 356.853 226.776C356.671 226.636 356.463 226.532 356.241 226.472Z" fill="black"/>
<path fill-rule="evenodd" clip-rule="evenodd" d="M363.689 237.749C363.689 238.391 363.433 239.007 362.979 239.462C362.525 239.916 361.909 240.171 361.266 240.171C360.624 240.171 360.008 239.916 359.553 239.462C359.099 239.007 358.844 238.391 358.844 237.749C358.844 237.106 359.099 236.49 359.553 236.036C360.008 235.581 360.624 235.326 361.266 235.326C361.909 235.326 362.525 235.581 362.979 236.036C363.433 236.49 363.689 237.106 363.689 237.749Z" fill="black"/>
<path fill-rule="evenodd" clip-rule="evenodd" d="M363.333 253.777C363.333 254.419 363.078 255.035 362.624 255.49C362.17 255.944 361.553 256.199 360.911 256.199C360.269 256.199 359.652 255.944 359.198 255.49C358.744 255.035 358.489 254.419 358.489 253.777C358.489 253.134 358.744 252.518 359.198 252.064C359.652 251.609 360.269 251.354 360.911 251.354C361.553 251.354 362.17 251.609 362.624 252.064C363.078 252.518 363.333 253.134 363.333 253.777Z" fill="black"/>
<path fill-rule="evenodd" clip-rule="evenodd" d="M362.776 270.467C362.776 271.109 362.52 271.725 362.066 272.18C361.612 272.634 360.996 272.889 360.353 272.889C359.711 272.889 359.094 272.634 358.64 272.18C358.186 271.725 357.931 271.109 357.931 270.467C357.931 269.824 358.186 269.208 358.64 268.754C359.094 268.299 359.711 268.044 360.353 268.044C360.996 268.044 361.612 268.299 362.066 268.754C362.52 269.208 362.776 269.824 362.776 270.467Z" fill="black"/>
<path d="M238.534 48.7769C237.003 48.5315 235.496 49.3752 234.411 50.7105C233.327 52.0453 232.436 53.9499 231.663 56.6265C230.148 61.8596 230.044 70.8631 230.195 78.8159C230.346 86.7688 230.839 93.5347 230.839 93.5347C230.873 93.9975 231.089 94.428 231.439 94.7316C231.79 95.0353 232.247 95.1871 232.71 95.1538C232.939 95.1372 233.163 95.0756 233.369 94.9725C233.574 94.8694 233.758 94.7267 233.908 94.5528C234.058 94.3789 234.173 94.177 234.245 93.9587C234.317 93.7405 234.346 93.5101 234.329 93.2808C234.329 93.2808 233.842 86.5954 233.693 78.7495C233.544 70.9036 233.82 61.761 235.025 57.6011V57.5991C235.716 55.204 236.509 53.6802 237.128 52.9174C237.748 52.1547 237.965 52.2315 237.98 52.2338C237.995 52.2358 238.308 52.3571 238.648 53.0307C238.988 53.7043 239.267 54.8026 239.284 56.1069C239.307 57.8702 239.672 61.3745 240.279 66.1088C240.885 70.8432 241.735 76.7138 242.741 82.8334C244.753 95.0728 247.341 108.222 249.946 115.49C255.913 132.142 266.781 150.83 287.995 171.423C307.469 190.319 327.098 199.734 343.48 201.941C343.491 201.942 343.503 201.944 343.515 201.945C343.587 201.953 343.648 201.995 343.7 202.078C343.732 202.145 343.738 202.223 343.71 202.289C343.705 202.3 343.699 202.311 343.694 202.322C324.406 244.613 335.019 316.724 340.682 383.822C340.702 384.051 340.766 384.274 340.871 384.479C340.977 384.683 341.122 384.865 341.298 385.013C341.473 385.161 341.677 385.274 341.896 385.343C342.115 385.413 342.346 385.439 342.575 385.419C342.804 385.4 343.027 385.336 343.231 385.23C343.435 385.124 343.617 384.98 343.765 384.804C343.913 384.628 344.025 384.425 344.095 384.206C344.165 383.987 344.19 383.756 344.171 383.527C338.495 316.283 328.428 244.23 346.88 203.775L346.864 203.808C347.39 202.716 347.351 201.436 346.77 200.378C346.766 200.372 346.762 200.365 346.758 200.359C346.171 199.325 345.117 198.604 343.914 198.466C328.481 196.378 309.468 187.379 290.435 168.912C269.55 148.639 259.037 130.478 253.244 114.31C250.849 107.63 248.195 94.4211 246.197 82.2652C245.198 76.1873 244.352 70.352 243.752 65.6656C243.152 60.9792 242.804 57.3483 242.787 56.0601C242.764 54.3124 242.427 52.7455 241.775 51.4547C241.124 50.1638 240.069 49.0223 238.537 48.7769L238.534 48.7769Z" fill="black"/>
<path d="M231.075 154.24C230.62 154.329 230.219 154.596 229.961 154.982C229.702 155.367 229.607 155.839 229.697 156.294C238.762 202.413 265.939 235.888 320.865 248.097C321.318 248.198 321.792 248.114 322.184 247.865C322.575 247.616 322.852 247.222 322.952 246.769C323.053 246.316 322.97 245.842 322.721 245.45C322.472 245.059 322.077 244.782 321.624 244.681C267.77 232.71 242.005 200.77 233.13 155.619C233.041 155.163 232.774 154.762 232.388 154.504C232.003 154.245 231.531 154.15 231.075 154.24Z" fill="black"/>
<path d="M257.976 127.714C257.512 127.706 257.064 127.882 256.73 128.204C256.396 128.526 256.203 128.967 256.195 129.431C255.925 144.24 251.628 156.219 247.148 160.871C246.028 162.033 244.935 162.72 243.984 162.996C243.032 163.271 242.217 163.211 241.269 162.726C239.373 161.756 236.975 158.62 235.085 152.501C234.948 152.058 234.641 151.687 234.231 151.47C233.821 151.254 233.341 151.209 232.898 151.345C232.678 151.413 232.474 151.523 232.297 151.67C232.12 151.817 231.973 151.997 231.866 152.2C231.758 152.404 231.692 152.626 231.671 152.855C231.65 153.084 231.673 153.315 231.741 153.535C233.767 160.093 236.323 164.129 239.675 165.843C241.351 166.7 243.233 166.859 244.958 166.359C246.683 165.859 248.247 164.775 249.669 163.298C255.359 157.391 259.412 144.915 259.693 129.496C259.701 129.032 259.525 128.584 259.203 128.25C258.881 127.916 258.44 127.723 257.976 127.714Z" fill="black"/>
<path d="M233.316 121.767C232.865 121.878 232.477 122.163 232.237 122.56C231.996 122.957 231.924 123.434 232.034 123.884C233.083 128.154 236.663 132.25 241.667 135.466C244.588 137.345 247.455 141.622 249.415 145.433C251.376 149.245 252.499 152.509 252.499 152.509C252.65 152.948 252.969 153.309 253.386 153.512C253.803 153.716 254.283 153.746 254.722 153.595C255.161 153.444 255.521 153.125 255.725 152.709C255.929 152.292 255.958 151.811 255.808 151.373C255.808 151.373 254.611 147.884 252.527 143.832C250.442 139.779 247.539 135.083 243.56 132.523C243.56 132.522 243.56 132.522 243.56 132.521C239.084 129.644 236.144 125.946 235.433 123.05C235.378 122.827 235.28 122.617 235.144 122.431C235.008 122.246 234.837 122.089 234.64 121.97C234.443 121.851 234.225 121.771 233.998 121.737C233.771 121.702 233.539 121.712 233.316 121.767Z" fill="black"/>
<path d="M238.988 129.296C238.76 129.264 238.528 129.278 238.306 129.335C238.083 129.393 237.874 129.494 237.691 129.632C234.348 132.152 232.342 136.156 231.988 141.425C231.972 141.655 232.002 141.885 232.076 142.102C232.149 142.32 232.265 142.521 232.416 142.694C232.567 142.867 232.751 143.009 232.957 143.111C233.163 143.213 233.387 143.273 233.616 143.289C233.846 143.304 234.076 143.274 234.294 143.2C234.511 143.127 234.713 143.011 234.886 142.86C235.059 142.709 235.2 142.525 235.302 142.319C235.404 142.113 235.464 141.889 235.48 141.66C235.785 137.113 237.299 134.31 239.796 132.427C239.98 132.289 240.134 132.116 240.251 131.918C240.368 131.72 240.445 131.501 240.477 131.273C240.509 131.046 240.496 130.814 240.438 130.591C240.381 130.369 240.28 130.16 240.142 129.976C240.004 129.793 239.83 129.638 239.632 129.521C239.434 129.405 239.215 129.328 238.988 129.296Z" fill="black"/>
<path fill-rule="evenodd" clip-rule="evenodd" d="M246.814 138.002C251.334 143.725 254.154 151.941 254.154 151.941C251.004 160.651 246.334 165.721 241.884 164.791C238.264 154.843 240.374 146.003 246.814 138.002Z" fill="black"/>
<path d="M359.906 162.283C359.527 162.014 359.057 161.908 358.6 161.986C358.142 162.064 357.734 162.32 357.466 162.699C355.05 166.111 352.752 167.597 350.089 167.298C349.628 167.247 349.166 167.38 348.803 167.67C348.44 167.959 348.208 168.38 348.156 168.841C348.104 169.302 348.238 169.765 348.527 170.127C348.816 170.49 349.238 170.723 349.698 170.775C353.936 171.25 357.538 168.654 360.322 164.722C360.59 164.344 360.697 163.874 360.619 163.416C360.541 162.959 360.284 162.551 359.906 162.283Z" fill="black"/>
<path d="M351.267 122.525C351.038 122.503 350.807 122.527 350.587 122.595C350.368 122.663 350.163 122.773 349.986 122.92C349.809 123.067 349.663 123.247 349.556 123.45C349.448 123.654 349.382 123.876 349.361 124.105C348.709 131.064 346.978 136.235 344.298 139.482C341.618 142.728 338.043 144.276 332.8 144.017C332.571 144.006 332.341 144.04 332.125 144.117C331.908 144.195 331.709 144.314 331.539 144.468C331.369 144.623 331.23 144.809 331.132 145.017C331.034 145.225 330.977 145.45 330.966 145.679C330.955 145.909 330.989 146.138 331.066 146.355C331.144 146.571 331.263 146.77 331.417 146.94C331.572 147.111 331.758 147.249 331.966 147.347C332.174 147.446 332.399 147.502 332.628 147.513C338.695 147.813 343.645 145.772 346.997 141.71C350.35 137.649 352.158 131.794 352.847 124.431C352.868 124.202 352.845 123.971 352.777 123.752C352.709 123.532 352.599 123.328 352.452 123.151C352.305 122.974 352.125 122.827 351.922 122.72C351.718 122.612 351.496 122.546 351.267 122.525Z" fill="black"/>
<path d="M342.13 129.566C341.259 129.593 340.399 129.799 339.609 130.214C339.198 130.43 338.89 130.801 338.752 131.244C338.614 131.687 338.658 132.167 338.874 132.578C339.09 132.988 339.461 133.297 339.904 133.434C340.347 133.572 340.827 133.528 341.238 133.312C341.917 132.955 342.521 132.92 343.525 133.287C343.961 133.445 344.442 133.424 344.862 133.228C345.282 133.032 345.608 132.677 345.767 132.242C345.926 131.806 345.906 131.325 345.71 130.904C345.514 130.483 345.16 130.157 344.724 129.998C343.886 129.692 343.002 129.539 342.13 129.566Z" fill="black"/>
<path d="M356.757 130.718C355.906 130.841 355.046 131.155 354.23 131.64C353.831 131.877 353.543 132.263 353.428 132.713C353.314 133.163 353.383 133.64 353.62 134.039C353.858 134.437 354.244 134.726 354.693 134.84C355.143 134.954 355.62 134.885 356.019 134.648C357.027 134.048 357.545 134.052 358.077 134.238C358.61 134.423 359.298 134.981 360.011 136.021C360.274 136.403 360.677 136.666 361.133 136.751C361.589 136.836 362.06 136.736 362.443 136.474C362.632 136.344 362.795 136.178 362.92 135.986C363.046 135.793 363.132 135.578 363.174 135.352C363.217 135.126 363.214 134.893 363.167 134.668C363.119 134.444 363.028 134.23 362.898 134.04C361.941 132.646 360.783 131.475 359.228 130.933C358.451 130.662 357.609 130.595 356.757 130.718Z" fill="black"/>
<path fill-rule="evenodd" clip-rule="evenodd" d="M358.831 143.001C358.455 143.959 357.841 144.778 357.126 145.279C356.411 145.78 355.652 145.921 355.017 145.672C354.383 145.422 353.923 144.802 353.741 143.948C353.558 143.095 353.667 142.077 354.044 141.119C354.42 140.161 355.034 139.341 355.749 138.84C356.464 138.339 357.222 138.198 357.857 138.448C358.492 138.697 358.951 139.317 359.134 140.171C359.317 141.025 359.208 142.043 358.831 143.001Z" fill="black"/>
<path fill-rule="evenodd" clip-rule="evenodd" d="M343.182 138.283C343.027 138.676 342.822 139.046 342.579 139.37C342.336 139.695 342.06 139.968 341.766 140.174C341.472 140.379 341.166 140.514 340.866 140.57C340.566 140.626 340.277 140.602 340.016 140.499C339.489 140.292 339.108 139.778 338.956 139.069C338.805 138.36 338.895 137.515 339.208 136.72C339.52 135.925 340.03 135.245 340.623 134.829C341.217 134.414 341.846 134.296 342.373 134.504C342.634 134.606 342.862 134.785 343.044 135.031C343.226 135.276 343.358 135.583 343.433 135.934C343.508 136.285 343.524 136.673 343.481 137.076C343.438 137.479 343.336 137.889 343.182 138.283Z" fill="black"/>
<path d="M402.638 204.8C400.231 205.212 397.883 206.544 395.722 208.808C391.4 213.336 387.572 221.56 384.126 235.283C371.616 285.096 371.944 328.653 370.775 383.23C370.765 383.694 370.939 384.143 371.26 384.478C371.581 384.813 372.022 385.007 372.486 385.017C372.715 385.022 372.944 384.982 373.158 384.898C373.372 384.815 373.568 384.69 373.734 384.531C373.9 384.372 374.033 384.182 374.126 383.971C374.218 383.761 374.268 383.534 374.273 383.304C375.443 328.674 375.131 285.466 387.521 236.134C390.895 222.696 394.712 214.936 398.255 211.224C400.027 209.368 401.668 208.516 403.228 208.25C404.788 207.983 406.358 208.291 408.038 209.123C411.398 210.786 414.972 214.642 418.056 219.027C421.14 223.412 423.78 228.284 425.636 231.91C451.815 283.082 461.706 321.524 462.454 383.771C462.457 384.001 462.505 384.228 462.595 384.439C462.685 384.651 462.816 384.842 462.981 385.003C463.145 385.163 463.339 385.29 463.553 385.376C463.766 385.461 463.994 385.504 464.224 385.501C464.454 385.499 464.681 385.451 464.893 385.361C465.104 385.27 465.296 385.139 465.456 384.974C465.617 384.81 465.744 384.615 465.829 384.402C465.915 384.188 465.957 383.96 465.954 383.73C465.202 321.127 455.092 281.805 428.751 230.316C426.862 226.626 424.163 221.626 420.919 217.013C417.675 212.401 413.932 208.135 409.591 205.986C407.421 204.911 405.045 204.389 402.638 204.8Z" fill="black"/>
<path d="M401.423 81.7964C393.103 80.94 387.167 87.7729 385.394 90.0815C369.033 84.4898 356.624 86.6995 348.191 92.4526C339.541 98.3534 335.092 107.678 334.116 115.517C333.789 118.153 332.26 120.181 330.915 121.759C330.243 122.548 329.637 123.111 329.159 124.011C328.92 124.461 328.615 125.244 329.001 126.13C329.388 127.017 330.171 127.342 330.736 127.492C333.976 128.35 337.963 128.852 342.066 127.513C345.594 126.362 349.076 123.713 352.14 119.22C356.114 124.939 360.22 128.542 364.802 130.63C369.373 132.714 374.405 133.373 380.042 133.89C379.822 134.543 379.723 134.512 379.532 135.542C379.076 138.014 378.862 141.598 379.745 146.128C379.745 146.129 379.745 146.13 379.745 146.13C380.201 148.456 380.659 149.979 382.079 150.939C382.79 151.419 383.792 151.529 384.529 151.312C385.265 151.095 385.793 150.692 386.261 150.257C388.131 148.519 389.47 145.697 390.376 144.246V144.244C391.229 142.883 392.058 142.355 392.695 142.201C393.332 142.047 393.933 142.176 394.656 142.728C396.101 143.833 397.58 146.839 397.355 150.847C397.144 154.605 394.822 156.844 392.323 158.333C389.825 159.823 387.368 160.326 387.368 160.326C387.083 160.383 386.816 160.511 386.592 160.697C386.369 160.884 386.195 161.123 386.087 161.394C380.015 176.615 382.67 193.173 395.435 204.943C407.257 215.843 418.911 216.639 428.161 213.441C437.412 210.242 444.336 203.359 447.906 199.23C447.906 199.229 447.906 199.229 447.906 199.228C450.116 196.669 451.267 194.755 451.409 192.802C451.48 191.826 451.193 190.818 450.618 190.093C450.044 189.369 449.283 188.941 448.521 188.669C447.407 188.272 443.507 185.954 439.831 183.179C436.155 180.404 432.429 177.024 430.857 174.681V174.679C426.743 168.536 425.928 161.035 426.05 152.175C426.172 143.315 427.237 133.206 426.531 122.199V122.197C425.551 106.918 421.902 97.1018 417.12 90.9193C412.339 84.7365 406.421 82.3103 401.423 81.7964ZM401.064 85.2769C405.256 85.7079 410.142 87.6176 414.351 93.0601C418.56 98.5025 422.086 107.601 423.036 122.421C423.72 133.065 422.675 143.029 422.55 152.128C422.425 161.227 423.225 169.573 427.95 176.628C427.95 176.629 427.95 176.63 427.95 176.63C430.028 179.727 433.888 183.077 437.724 185.972C441.559 188.868 445.097 191.162 447.345 191.964C447.693 192.088 447.842 192.221 447.878 192.267C447.914 192.313 447.94 192.287 447.921 192.546C447.883 193.064 447.249 194.638 445.259 196.941C441.908 200.817 435.298 207.27 427.021 210.132C418.744 212.994 408.878 212.573 397.81 202.369C386.27 191.728 383.847 177.341 389.083 163.472C390.112 163.203 391.884 162.672 394.116 161.341C397.188 159.511 400.562 156.202 400.851 151.043C401.126 146.134 399.545 142.061 396.782 139.949C395.401 138.893 393.611 138.378 391.872 138.798C390.133 139.219 388.603 140.485 387.411 142.386C387.411 142.387 387.411 142.388 387.411 142.388C386.347 144.092 384.841 146.761 383.911 147.648C383.872 147.527 383.513 147.141 383.183 145.459V145.457C382.386 141.369 382.593 138.251 382.976 136.179C383.359 134.107 383.853 133.211 383.853 133.211C383.988 132.955 384.057 132.669 384.055 132.38C384.053 132.091 383.979 131.807 383.84 131.553C383.701 131.3 383.501 131.084 383.259 130.927C383.016 130.769 382.738 130.674 382.45 130.65C375.919 130.106 370.748 129.493 366.255 127.445C361.762 125.397 357.792 121.92 353.589 115.201C353.428 114.944 353.203 114.733 352.936 114.589C352.669 114.445 352.369 114.373 352.066 114.38C351.762 114.386 351.466 114.472 351.206 114.628C350.946 114.784 350.73 115.005 350.581 115.269C347.522 120.688 344.199 123.137 340.982 124.187C338.354 125.045 335.754 124.848 333.302 124.373C333.437 124.211 333.429 124.209 333.581 124.031C335.024 122.339 337.13 119.679 337.593 115.949C338.447 109.082 342.485 100.583 350.165 95.3433C357.846 90.1039 369.221 87.8846 385.441 93.7574C385.801 93.8879 386.195 93.8963 386.561 93.7813C386.927 93.6662 387.245 93.4341 387.466 93.1207C387.466 93.1207 393.889 84.5383 401.066 85.2769L401.064 85.2769Z" fill="black"/>
<path fill-rule="evenodd" clip-rule="evenodd" d="M382.304 132.394C369.184 131.302 360.754 129.957 352.104 116.129C345.664 127.536 337.304 127.421 331.184 125.8C328.584 125.112 335.064 122.099 335.854 115.733C337.684 101.027 352.824 80.0868 386.034 92.1118C386.034 92.1118 392.704 82.6578 401.244 83.5368C410.434 84.4818 422.854 92.2098 424.784 122.31C426.174 143.962 420.564 162.456 429.404 175.655C433.054 181.094 444.574 189.118 447.934 190.317C450.154 191.109 450.784 193.223 446.584 198.085C439.664 206.09 419.514 224.761 396.624 203.656C384.364 192.351 381.864 176.706 387.714 162.042C387.714 162.042 398.604 159.862 399.104 150.945C399.604 142.028 392.984 136.788 388.894 143.316C386.914 146.486 383.154 154.414 381.464 145.793C379.784 137.173 382.304 132.394 382.304 132.394ZM395.134 171.095L394.994 165.311C394.964 164.345 394.164 163.582 393.194 163.606C392.234 163.631 391.464 164.435 391.494 165.401L391.634 171.191C390.794 171.774 390.234 172.751 390.234 173.858C390.234 175.642 391.684 177.089 393.464 177.089C395.244 177.089 396.694 175.642 396.694 173.858C396.694 172.688 396.074 171.662 395.134 171.095Z" fill="black"/>
<path d="M336.255 158.613C335.795 158.676 335.38 158.919 335.099 159.288C334.819 159.658 334.696 160.124 334.759 160.584C337.101 177.673 347.603 186.42 358.925 188.693C370.247 190.966 382.364 187.2 388.73 179.683C388.878 179.508 388.991 179.305 389.061 179.086C389.131 178.867 389.157 178.636 389.138 178.407C389.119 178.178 389.055 177.955 388.95 177.751C388.845 177.546 388.7 177.365 388.525 177.216C388.349 177.068 388.146 176.955 387.927 176.885C387.708 176.815 387.478 176.789 387.249 176.808C387.02 176.827 386.797 176.891 386.592 176.996C386.388 177.101 386.206 177.246 386.058 177.421C380.773 183.662 369.7 187.286 359.615 185.261C349.529 183.237 340.406 175.999 338.228 160.109C338.197 159.881 338.121 159.662 338.005 159.463C337.889 159.265 337.735 159.091 337.551 158.952C337.368 158.813 337.159 158.712 336.937 158.653C336.715 158.595 336.483 158.581 336.255 158.613Z" fill="black"/>
</g>
<defs>
<clipPath id="clip0_1_291">
<rect width="465.954" height="386.23" fill="white"/>
</clipPath>
</defs>
</svg>
